<?xml version="1.0" encoding="UTF-8"?><svg id="Layer_2" xmlns="http://www.w3.org/2000/svg" xmlns:xlink="http://www.w3.org/1999/xlink" viewBox="0 0 61.93 45.44"><defs><style>.cls-1{fill:none;}.cls-2{clip-path:url(#clippath);}.cls-3{fill:#7b868c;}</style><clipPath id="clippath"><rect class="cls-1" x="0" width="61.93" height="45.44"/></clipPath></defs><g id="Layer_1-2"><g class="cls-2"><path class="cls-3" d="M61.93,43.54h-9V22.85h7.76v-1.77h-7.76V1.81h8.47V0h-10.72V45.4h11.25v-1.85Zm-19.27-6.27L35.38,.88V0h-2.25V45.4h2.25V11.29l6.84,34.1h2.69V0h-2.25V37.28Zm-13.99,6.27h-9V22.85h7.76v-1.77h-7.76V1.81h8.47V0h-10.72V45.4h11.25v-1.85Zm-13.4,.09h-5.87c-2.97,0-4.9-1.46-5.78-4.37-.82-2.65-1.23-8.18-1.23-16.59s.41-13.81,1.23-16.45c.91-2.91,2.84-4.37,5.78-4.37h5.74l-.04-1.81h-5.69C5.43,.04,2.84,1.63,1.63,4.81,.54,7.66,0,13.62,0,22.68s.54,15.15,1.63,18c.65,1.74,1.6,2.97,2.87,3.71,1.18,.71,2.81,1.06,4.9,1.06h5.65l.22-1.81Z"/></g></g></svg>